<?xml version="1.0" encoding="UTF-8"?>
<svg id="Layer_1" data-name="Layer 1" xmlns="http://www.w3.org/2000/svg" viewBox="0 0 80 80">
  <defs>
    <style>
      .cls-1 {
        fill: #fff;
      }
    </style>
  </defs>
  <path class="cls-1" d="m22.56,67.89l-2.98,2.43,1.48-3.54-.95-.7-2.93,2.39,1.42-3.5-1.02-.75-2.17,5.61.96.71,2.99-2.52-1.51,3.6.96.71,4.74-3.71-1-.74Zm2.04,1.08l-2.64,5.16,1.06.54,2.64-5.16-1.06-.54Zm4.33,1.8c-.52-.19-1-.2-1.43-.04-.46.17-.79.52-.97,1.04-.17.47-.15.89.06,1.27.16.3.48.64.95,1.02.29.24.48.42.56.54.11.17.13.34.07.51-.06.16-.16.27-.32.33-.19.07-.39.07-.61,0-.15-.05-.27-.13-.37-.24-.11-.12-.17-.25-.19-.39,0-.09.01-.2.06-.34l-1.09-.39c-.2.54-.17,1.04.08,1.48.22.39.61.68,1.15.88.47.17.92.2,1.33.1.56-.14.94-.5,1.15-1.08.2-.54.11-1.05-.25-1.53-.14-.18-.38-.42-.72-.7-.27-.23-.45-.39-.54-.49-.18-.21-.23-.42-.15-.64.05-.15.15-.26.29-.33.16-.08.36-.08.58,0,.44.16.59.47.47.93l1.14.41c.15-.56.1-1.05-.15-1.47-.22-.39-.59-.67-1.09-.85m4.13,2.91c.39-.32.84-.43,1.36-.33.46.08.87.36,1.23.84l.91-.63c-.23-.32-.45-.57-.66-.73-.37-.29-.82-.48-1.33-.57-.5-.09-.97-.07-1.4.06-.52.16-.95.46-1.29.9-.35.43-.58.93-.68,1.5-.06.34-.07.67-.03,1.01.06.46.2.86.42,1.22.41.66,1.04,1.07,1.89,1.23.48.09.94.07,1.37-.04.27-.07.58-.22.91-.43l-.56-.94c-.41.33-.87.45-1.38.36-.32-.06-.6-.19-.83-.38-.24-.2-.41-.44-.51-.72-.12-.35-.15-.72-.08-1.11.1-.52.32-.93.68-1.22m9.91.51c.24.43.36.93.37,1.5,0,.53-.11,1.02-.37,1.49-.27.51-.66.9-1.16,1.17-.43.24-.89.36-1.39.37-.55,0-1.07-.12-1.55-.38-.51-.29-.91-.68-1.17-1.18-.23-.42-.34-.88-.35-1.38-.01-.89.29-1.64.91-2.25.56-.55,1.25-.83,2.09-.84.5,0,.97.1,1.39.32.54.28.95.67,1.23,1.18m-.84,1.53c0-.61-.21-1.1-.6-1.46-.34-.32-.75-.47-1.21-.47-.56,0-1,.23-1.35.66-.29.36-.43.79-.42,1.29,0,.55.19,1,.54,1.36.35.35.78.53,1.27.52.52,0,.96-.21,1.31-.61.17-.2.29-.43.37-.7.06-.21.08-.4.08-.59m5.84-3.86l.75,3.54-3.13-3.04-1.14.24,1.2,5.67,1.16-.25-.76-3.59,3.15,3.08,1.13-.24-1.2-5.67-1.16.25Zm6.5.7c-.22-.04-.56-.06-1.01-.04-.36.01-.6.01-.74,0-.27-.03-.45-.16-.54-.38-.06-.15-.06-.29,0-.44.07-.17.21-.3.43-.39.43-.17.75-.05.97.38l1.12-.45c-.26-.51-.63-.85-1.09-1-.43-.14-.89-.11-1.38.09-.51.21-.87.52-1.09.93-.23.44-.24.91-.03,1.42.19.46.48.76.89.9.32.11.78.16,1.39.13.38-.02.64,0,.77.03.19.05.32.16.39.34.06.15.06.31-.02.46-.09.18-.24.31-.46.4-.14.06-.29.08-.44.07-.16-.02-.3-.07-.4-.17-.06-.06-.12-.16-.18-.3l-1.07.44c.21.54.56.89,1.05,1.05.43.14.91.1,1.44-.11.47-.19.82-.46,1.05-.81.32-.48.36-1,.13-1.57-.22-.54-.62-.86-1.2-.97m1-3.63l2.84,5.06,1.04-.58-2.84-5.06-1.04.58Zm5.43-3.64l2.21,2.87-4.14-1.39-.93.71,3.53,4.6.94-.73-2.23-2.91,4.17,1.42.92-.71-3.53-4.6-.94.73Zm-14.84-25.94c.01.14.03,1.63.04,3.45.02,2.41.04,5.4.05,6.59,0,.33,0,.53,0,.53l.44-.14h.57c.17,0,.1-.13-.07-.27v-.57s-.19-6.95-.19-6.95l-.05-1.84c0-.54-.27-.85-.39-.94-.21-.16-.44-.25-.4.15Zm-3.52.8c0-.45,0-.74,0-.8,0-.6-.36-.65-.51-.73-.12-.03-.24.01-.42.06l-.1,3.87-.13,5.11-.02.88h-3.28c0-.17,0-.51-.01-.96,0-.27,0-.58-.01-.92-.01-1.27-.03-2.94-.05-4.35,0-.61-.01-1.17-.02-1.63,0-.72-.01-1.21-.01-1.28,0-.52-.56-.7-.85-.7-.05,0-.09,0-.12,0l-.04,1.23-.16,5.46-.03.88-.07,2.49c-.31.2-.62.49-.75.63v.46s.41-.29.86-.47c.09-.04.27-.09.52-.09h5.34v-.74h-.04c0-.35-.01-1.16-.02-2.15-.02-2.04-.05-4.86-.06-6.24Zm0,11.02h-.35v-1.09h-4.6c-.58.02-.98.14-1.2.24-.13.05-.2.1-.2.1v.76h-2.7v.49h13.02v.91l-6-.22h-.33s-.19-.02-.19-.02l-1.02-.04-5.48-.2v1.76h12.97v.73l1.56-.46v-3.54l-1.56.6h-3.92Zm-2.61-13.86h.06c1.28,0,2.55-.03,3.75.08.05,0,.11,0,.16.01-.03-.05-.06-.1-.1-.15-.44-.64-1.09-.95-1.33-1.04-.61-.06-1.47-.12-2.48-.15-1.16-.03-2.53-.03-3.98.05-.22.01-.44.03-.67.04-2.15.16-4.41.5-6.39,1.15-.22.07-.44.15-.66.23-2.67,1-4.68,2.63-4.93,5.21.07.14.14.29.23.44,0-.22.04-.44.14-.6.93-1.52,2.94-2.86,5.77-3.81.22-.07.44-.14.67-.21,1.67-.5,3.6-.87,5.74-1.08.22-.02.44-.04.66-.06,1.07-.08,2.19-.13,3.35-.12Zm-6.92,1.29c-.32-.2-.69-.24-.92-.13.05.08.42.6.42.6.13-.01.35-.04.49-.03.14.01.25-.29,0-.44Zm2.07,27.4c0,.31.25.56.56.56.08,0,.16-.02.23-.06l-.1,4.72c.46.06.93.12,1.4.16v-4.89c-.84-.63-1.84-.63-2.07-.64-.01.05-.02.1-.02.15Zm-5.69-26.16c-.32-.2-.86-.28-1.05-.13.05.08.42.6.42.6.13-.02.49-.04.63-.03.14.01.25-.29,0-.44Zm-1.73,20.17l-3.42-.82v.69s3.42,1.13,3.42,1.13v.72l.23.05v-2.02l-.23-.05v.3Zm13.34,4.95c-.1-.03-.2-.05-.31-.08-.23-.06-.47-.11-.71-.16-2.03-.41-4.23-.42-6.12-.29-.05,0-.1,0-.15.01-.13.01-.26.02-.38.03-.11,0-.22.02-.33.03-.06,0-.12.01-.17.02-.13.01-.26.03-.39.04-.02,0-.05,0-.07,0-.15.02-.29.04-.43.05h0c-.27.04-.52.07-.76.11,0,.01.01.02.02.04.02.03.03.07.05.1,0,0,0,0,0,0h.69v.88s0,0,.01,0c1.25-.17,2.55-.3,3.89-.39.12,0,.24-.01.35-.02.56-.04,1.12-.07,1.69-.09.69-.02,1.39-.04,2.09-.04.01,0,.02,0,.04,0,.64,0,1.27.01,1.89.03h0c-.2-.08-.41-.15-.62-.21-.1-.03-.2-.06-.29-.08Zm.78-10.33s-.06,0-.09-.01c-.23-.03-.45-.06-.68-.08-.06,0-.13-.01-.19-.02-.26-.02-.53-.03-.8-.03-.01,0-.02,0-.04,0-3.43,0-6.24,1.32-8.05,3.63v.03s0-1.36,0-1.36v-2.11l-6.56,2.12,6.49,1.63v.02s.08.02.08.02l.3.08.24-.46c.15-.09.31-.17.48-.25.05-.02.1-.05.15-.07.13-.06.26-.11.4-.17.05-.02.1-.04.15-.06.16-.06.33-.12.51-.17.1-.03.2-.06.3-.08.08-.02.16-.04.24-.07.43-.11.88-.2,1.34-.28,1.33-.22,2.73-.31,3.94-.32,1.08-.01,2,.04,2.59.1,0,0,.11-.35-1.91-.6l-.07-.22c2.24-.27,4.92.31,5.75.57l-.07-.07c-1.28-.89-2.82-1.53-4.5-1.79Zm2.33,4s-.08,0-.12-.01c-.02,0-.04,0-.07,0-.06,0-.12-.01-.18-.02-.24-.02-.5-.05-.73-.07h0s-.28-.78-.28-.78h0s0-.01,0-.01c-.15-.08-.78-.18-1.15-.25v.64l-.2.28h-.04v-.4c-.46-.13-.91-.23-1.34-.3-.56-.1-1.07-.15-1.45-.15l.33.7v.14c-.3.02-.79.04-1.01.04.26-.37.43-.92.44-1.23l-.93.05-.2.33c-.94.04-1.69.13-2.3.23-.09.02-.17.03-.25.05v.83c-.49.06-.86.13-1.16.18.16-.06.51-.32.81-.95h0s-.07.02-.1.02c-.08.02-.16.04-.23.06-.04.01-.08.02-.12.04-.06.02-.13.04-.19.05-.04.01-.07.02-.11.04-.06.02-.12.04-.17.06-.03.01-.06.02-.1.04-.05.02-.11.04-.16.06-.03.01-.05.02-.08.03-.05.02-.11.04-.16.07-.02,0-.04.02-.07.03-.06.02-.11.05-.16.07-.01,0-.03.01-.04.02-.12.05-.24.11-.35.16h0s.03,0,.03,0c0,0,.02.31-.12.37,0,0-.07.02-.17.04-.07.02-.15.04-.24.06v.03c-.18.04-.36.07-.55.12,0,0,0,0,0,0,0,0,0,0,0,0,0,0,0,0-.01,0-.04.01-.08.02-.12.03,0,0,0,0,0,0-.04.01-.06.02-.08.03l.02-.02c-.24.06-.48.12-.71.18-.06.02-.13.03-.19.05-.08.02-.16.04-.24.06-.15.04-.3.08-.45.12l.25.57.2-.04.25,1.07v1.3s-.48.13-.61.19c.02.03.05.08.08.12,0,.01.02.03.03.05.03.04.05.08.09.13,0,.01.01.02.02.03.1.15.21.32.32.48.01.02.03.04.04.07.03.04.06.09.08.13,0-.01-.01-.02-.02-.03.55-.13,1.17-.23,1.83-.33,1.63-.23,3.49-.37,5.04-.45,0,0,0,0,.01,0,.19,0,.38-.02.56-.03,0,0,.01,0,.02,0,.35-.02.69-.03.99-.04.02,0,.03,0,.05,0,.14,0,.28,0,.41,0,.02,0,.04,0,.06,0,.26,0,.48,0,.68-.01.01,0,.03,0,.04,0,.07,0,.13,0,.19,0h.05s.03,0,.04,0c.07,0,.13,0,.18,0v-.35c-.09,0-.18,0-.28-.01-.12,0-.24-.01-.36-.01-.07,0-.13,0-.2,0-.15,0-.3,0-.46-.01-.08,0-.15,0-.23,0-.16,0-.32,0-.47,0-.06,0-.13,0-.19,0-.22,0-.44,0-.66,0-.03,0-.06,0-.1,0-.19,0-.37,0-.56,0-.08,0-.16,0-.23,0-.14,0-.28,0-.42,0-.08,0-.17,0-.25,0-.14,0-.27,0-.4.01-.08,0-.16,0-.23,0-.19,0-.39.01-.57.02-.09,0-.17,0-.26.01-.11,0-.21,0-.31.01-.1,0-.2.01-.3.02-.08,0-.17,0-.25.01-.1,0-.2.01-.3.02-.06,0-.12,0-.18.01-.37.02-.72.05-1.02.07-.03,0-.05,0-.08,0-.49.04-.89.09-1.14.13l-.1-.17c.32-.07.72-.15,1.25-.25.1-.02.2-.04.31-.05.02,0,.05,0,.07-.01.11-.02.23-.04.36-.05.02,0,.04,0,.06,0,.11-.02.23-.03.35-.05.03,0,.06,0,.08-.01.14-.02.28-.03.43-.05.03,0,.07,0,.1-.01.14-.02.28-.03.42-.04.03,0,.05,0,.07,0,.16-.02.34-.03.51-.05.04,0,.09,0,.13-.01.18-.01.36-.03.55-.04.01,0,.02,0,.03,0,.2-.01.4-.03.61-.04.05,0,.11,0,.16,0,.21-.01.44-.02.67-.03.03,0,.06,0,.09,0,.21,0,.43-.02.65-.02.06,0,.12,0,.18,0,.25,0,.51-.01.77-.02.05,0,.1,0,.15,0,.24,0,.49,0,.74,0,.06,0,.11,0,.17,0,.11,0,.22,0,.34,0,.18,0,.37,0,.56,0,.07,0,.14,0,.21,0,.29,0,.58,0,.89,0,.04,0,.08,0,.12,0,.34,0,.68.01,1.04.02.08,0,.17,0,.25,0,.37,0,.74.02,1.13.03v-.38c-.51-.1-1.59-.45-1.59-.45v-1.62s.01,0,.01,0l-2.62.32-2.07.26-.02.55-.27.35v-1.65c-.31,0-1.03-.02-1.68,0l.02.37-3.87.82v.65l-.21.26v-1.9l.07.03.22.08.12.04c.29-.05.58-.09.88-.14.9-.13,1.85-.23,2.76-.31v-.15c.4-.06,1.72-.03,1.72-.03v-.51l.3.34.03.17c.63-.03,1.35-.03,2-.03h.03c.77,0,1.67.07,2.44.11l-.13-.34c.31,0,1.78.12,1.98.12v-.34s-.08,0-.14-.01c-.02,0-.04,0-.06,0Zm2.53-1.47l1.38,1.21v-.42h0v-3.27l-.77.24-.61,2.24Zm4.18-12.47c0,.21.25.61.37.61.12,0,.1-.3.09-.51l-.13-4.09c0-.21-.26-.4-.38-.4-.12,0-.07.2-.06.41l.11,3.98Zm-28.77,13.96c-1.06-.26-2.44-.59-3.95-.95v.7s3.95,1.27,3.95,1.27v.71l.23.05v-2.04l-.23-.05v.3Zm-14.01-18.65c0,17.62,14.33,31.95,31.95,31.95s31.95-14.33,31.95-31.95-13.85-31.46-31.06-31.94l-.06.44h-.18l-.28,2.58c.1.03.2.06.29.11,0,0,.01,0,.02.01.08.04.15.09.22.14.08.06.15.13.21.2v.51h0s0,0,0,0l-.12.3c.18.21.42.41.59.53v.34s.04.04.07.06c.03.02.05.05.08.07.06.06.12.12.18.19v3.04h0c.16.07.31.15.47.23.04.02.07.04.11.06.15.09.3.18.45.28v.86h0c-.58-.18-1.19-.31-1.8-.38-.01,0-.03,0-.04,0-.1-.01-.2-.02-.31-.03-.03,0-.05,0-.08,0-.09,0-.19-.01-.28-.02-.03,0-.06,0-.09,0-.12,0-.23,0-.35,0,0,0,0,0,0,0,0,0,0,0,0,0-.12,0-.24,0-.35,0-.07,0-.15,0-.22.01-.14,0-.27.02-.4.03,0,0,0,0,0,0h0v-.28c.32-.04.68-.06,1-.07.39-.01.73-.01.92,0v-.38h-.11v-.3c-.3-.1-.54-.17-.81-.21-.29-.05-.62-.07-1.11-.07h0s0,0,0,0c.15-.03.31-.06.47-.08.03,0,.06,0,.09-.01.17-.02.33-.03.51-.03.01,0,.03,0,.04,0,.13,0,.26,0,.39.02,0,0,0,0,.01,0,.14.01.27.03.41.06h0v-2.25h0s0-.92,0-.92c-.14-.11-.24-.15-.39-.18v.59l.07.09h-.49v-.4s0,0,0,0c-.12-.04-.24-.07-.35-.08v.84s.08-.03.13-.03c.08,0,.16.03.22.08.09.07.15.17.15.29v1.58s-.1,0-.15,0c-.01,0-.02,0-.04,0-.19,0-.37.02-.55.04v-2.8c-.61,0-.99.35-1.03.49v-.35c.32-.28.67-.47,1.05-.57h0v-.39h.1l.41.31.04.03h0v.02h.17l.06-.04h0s.38-.27.38-.27v-.29c-.23-.16-.44-.25-.62-.29-.48-.12-.81.03-.88.11v-.1c.14-.14.31-.25.52-.3,0,0,0,0,0,0,.11-.03.23-.05.35-.05,0,0,0,0,0,0h0s0,0,0-.01c.03-.04.08-.14.11-.33-.03,0-.06-.01-.09-.01,0,0,0,0-.01,0-.16,0-.3.03-.44.08l.08-1.79-.07-.64.12-.13.31.04h.08s-.08-.08-.08-.08h0s-.12-.15-.12-.15v-.3c-17.55.06-31.82,14.37-31.82,31.95Zm6.98-19.19l6.39,6.93-5.76-7.72c2.48-3.02,5.51-5.57,8.93-7.49l3.68,7.26,1.79,4.14c-1.14,1.97-1.95,4.31-2.31,6.89-.24.18-.42.34-.54.45-.89.82-1.46,1.68-1.58,2.62l-6.17-6.35-5.07-5.88c.21-.29.42-.57.63-.85Zm15.16,8.82s-.72.32-1.12.52c-.2-.66.35-.87.65-1.03-.03-.29.08-.44.08-.44.89-.5,1.41-.65,1.41-.65v.25c-.97.46-1.14.99-1.02,1.34Zm-1.26-.87c-.07.05-.15.11-.21.16.09-.52.24-2.09.98-3.69-.42,1.28-.71,2.82-.76,3.53Zm-.53,1.7c-.14.09-.29.19-.29.19-.06-.53.09-.82.28-1.01-.06.16-.05.59.01.82Zm26.5,37.29c-.03-.58-.08-1.53-.09-1.61.1-.02.78-.16.91-.19,0,.09.04.74.07,1.29-.3.17-.59.35-.9.51Zm5.11-3.43c-.21.17-.42.33-.64.5l-.75.16.02.4c-.13.1-.27.19-.41.29l-.05-.98,1.84-.38h0s-.01,0-.02.02Zm6.12-6.73l-2,.65v.7l-.23.05v-2.06l.23-.05v.3c.89-.21,1.79-.43,2.68-.64-.22.36-.45.71-.68,1.06Zm3.55-7h0s-8.71,2.23-8.71,2.23l9.09-3.36h0c-.12.38-.25.76-.38,1.14Zm1.68-13.65c.03.27.05.55.07.82l-11.46,4.81.07-.04,11.24-6.42c.03.27.06.55.09.82Zm-.25-1.92l-8.42,4.45,8.23-5.51c.07.35.13.71.19,1.06Zm-6.78-15.01c.22.26.42.53.63.8l-6.4,6.94,5.77-7.74Zm-7.26,11.53l8.53-9.89c.15.22.31.43.46.65.15.22.3.45.45.68l-9.48,8.61.04-.05Zm-4.96-20.62c.31.13.61.26.92.4l-3.54,8.84,2.63-9.24Zm-12.82,6.94h.14c-.39,1.07-.58,5.02-.18,7.66-.22,0-.44.02-.66.03-.12-1.77,0-6.11.7-7.69Zm-.79-3.24c0-.2.09-.41.2-.47.07-.04.14,0,.17.1-.08.09-.14.25-.14.41v1.37c-.08.02-.16.05-.23.07v-1.49Zm.03,13.02c-.03-.19-.16-.34.1-.81.1-.18-.03-.43.05-.48.46-.02.92-.02,1.32-.02.47,0,.87.02,1.15.02v-.17s.68.02,1.21.05v-.61c-.11-.01-.22-.02-.34-.03.03-2.77-.31-6.02-.78-7.4h0c.05.02.11.05.19.1.35,1,1.13,4.03,1.67,6.9,0,0,.75.07.95.1,0,0-.05-1.35-.12-1.93l.16.08c.31,1.14.54,3.06.54,3.06,0,0,.43.1.67.14-.27-5.79-1.68-7.52-1.86-7.81l.15.03c.37.43,1.17,1.36,1.92,2.57l.71.28c.15.31.9,2.26,1.05,3.03l.4.19c-.03-.34-.59-3.18-1.86-4.88l.25.06c.4.4,1.51,1.45,1.82,1.92l1.04.44h0s0,0,0,0h0s0,0,0,0c.15.21.3.42.45.64.08.12.15.24.23.36.02.03.04.06.05.09l4.28-11.78c.24.12.47.24.71.36.24.13.48.26.72.39l-5.65,11.12s.05.08.08.12c.09.15.18.31.27.47.04.08.09.15.13.23.08.15.16.31.24.47.04.08.08.16.12.25,0,.02.02.03.02.05,0,0,0,0,0,0,0,0,0,0,0,0,.15.32.29.64.42.98,0,0,0,0,0,0,0,0,0,.02,0,.03,0,.01,0,.02.01.03.03.08.06.16.09.24.03.08.06.17.09.25.03.08.06.17.09.25.03.09.06.18.09.27.01.03.02.07.03.1.1.31.19.63.28.95,0,0,0,0,0,.01.01.05.03.11.04.16,0,0,0,0,0,.01.04.17.09.35.13.52,0,.03.01.06.02.09.03.13.06.26.08.39,0,.02,0,.04.01.07,0,.04.01.07.02.11,0,0,0,.01,0,.02.07.35.13.71.18,1.07.26.19.45.36.57.47,1.02.94,1.61,1.92,1.6,3.01,0,.23-.02.46-.08.7v.59c.38.26.74.54,1.09.83.34.28.56.53.56.88v.74c.82.81,1.27,1.58,1.27,2.51,0,.65-.68,1.18-1.09,1.83l.13,2.04.62,9.37h.03s2.49.9,2.49.9l9.78-2.83h0c-.2.5-.42.99-.64,1.48l-1.3.33-18.75,4.72h0s-.15.04-.15.04h-.03s0,0,0,0v.3l-.25.11.29.27.28.26.07.02,19.24-4.84c-.09.18-.18.36-.28.53l-18.17,4.57.76.25c.25.19,1.22,1.63,1.4,2.87l-.82.17.5.92.14.12,11.58-2.52c-.38.41-.78.82-1.19,1.21l-9.61,2.1.56,1.03,3.05-.63v.38l-2.87.59.13.23.08.13c.21-.04.72-.15.83-.17,0,.12.07,1.24.09,1.77l.03.06s-.02,0-.03.01c-.2.1-.41.21-.62.31-.98.47-2,.89-3.03,1.26,0,0,0,0,0,0-1.24.44-2.51.8-3.81,1.08-.01,0-.03,0-.04,0-.21.04-.41.09-.62.13-.02,0-.03,0-.05,0-.87.17-1.75.3-2.65.39l-.04-2.78c0-2.22-.79-2.23-1.29-2.31l-.04,5.2c-.45.03-.91.05-1.37.06-.2,0-.39,0-.59,0-.24,0-.47,0-.71,0-8.52-.19-16.22-3.78-21.79-9.47-.01-.01-.03-.03-.04-.04-.36-.37-.71-.75-1.05-1.14-.03-.03-.05-.06-.08-.09-.17-.19-.33-.38-.49-.57-.01-.02-.03-.04-.04-.05-.14-.17-.29-.35-.43-.52-.03-.04-.07-.08-.1-.13-.15-.19-.29-.38-.44-.57-.03-.04-.06-.08-.09-.12-.12-.16-.24-.33-.36-.49-.03-.05-.07-.1-.1-.15-.13-.19-.27-.38-.4-.57-.01-.02-.02-.03-.04-.05-.03-.04-.05-.08-.08-.12-.85-1.27-1.6-2.6-2.26-3.99-.25-.53-.48-1.06-.7-1.6-.17-.41-.32-.82-.47-1.23h0s8.68,2.22,8.68,2.22l-9.06-3.35h0c-.64-2.04-1.08-4.17-1.3-6.36,0-.02,0-.03,0-.05-.02-.24-.04-.47-.06-.71,0-.06,0-.12-.01-.19-.01-.19-.03-.39-.04-.58,0-.12,0-.25-.01-.37,0-.14-.01-.27-.02-.41,0-.26-.01-.53-.01-.79,0-.75.03-1.49.08-2.23l6.78,2.84,8.32,4.11-.64,9.04-2.47.89-9.75-2.82s0,0,0,0c.2.49.41.98.64,1.46l1.43.36,11.49,2.89,7.57-2.45v-3.52l1.21.26c.85-.1,1.67-.17,2.43-.22.12,0,.24-.02.36-.02v.09h0v-.95c-.21.01-.42.03-.64.05-.39.03-.79.07-1.2.11-.15.02-.29.03-.44.05l-.02-.27v-.02s-.04,0-.04,0l-.37-.02s0-.08.01-.16c.01-.05.04-.11.1-.14.14-.07.11-.09.11-.2,0,0,0-.1,0-.27,0-.88,0-3.79,0-6.01,0-.32,0-.62,0-.9,0-1.01,0-1.75,0-1.84,0-.6-.77-.75-.96-.69l-.05,1.5-.03.88-.2,6.47-.02.69-.03.94-.58.23v.1c-.77.13-1.55.29-2.33.48v-.33s.3-.12.56-.14c.22-.02-.12-.31-.29-.31l.04-2.28v-.7s.11-5.73.11-5.73c-.03-.22-.73-.53-1-.53l-.29,5.67-.03.69-.19,3.65-.52.24v.22c-.34.11-.68.23-1.02.35-.05-.02-.1-.04-.17-.07l.15-5.25.02-.69.09-3.07c0-.22-.08-.38-.34-.72.04,0,.07,0,.09,0,.13.01.24-.28,0-.43-.3-.19-.75-.2-.95-.1.03.06.22.35.3.49l-.22,3.32-.04.68-.4,6.14-.41.22-.04.31c-.13.06-.25.13-.38.2.07-1.12.33-4.94.47-7.23.02-.25.03-.48.04-.68.04-.63.06-1.05.05-1.09,0-.19-.13-.38-.25-.5.06,0,.12,0,.16,0,.11,0,.19-.22,0-.35-.25-.15-.7-.26-.82-.1.02.04.13.19.22.32l-.09,1.36-.02.24c-.12-.11-.22-.24-.3-.4-.03-.06-.07-.13-.09-.2v.15s-8.35-4.12-8.35-4.12l-6.65-3.8c.05-.37.1-.74.16-1.1l8.39,4.43-8.2-5.49c.77-3.98,2.3-7.69,4.42-10.98l5.72,5.2,6.45,6.63c0,.05.02.11.03.16v.58c-.38.26-.75.54-1.1.83-.34.28-.56.53-.56.88v.71c-.85.82-1.32,1.59-1.32,2.53,0,.28.04.56.12.87.23-1.92,1.91-3.55,4.59-4.75.2-.09.41-.18.62-.26,1.86-.74,4.14-1.3,6.7-1.62.22-.03.43-.05.65-.08,1.29-.14,2.65-.22,4.05-.24v-.27c-1.48-.06-2.89.02-4.21.16-.22.02-.44.05-.65.08-1.73.22-3.26.56-4.46.88v-.26c1.34-.39,2.79-.69,4.34-.91.21-.03.43-.06.65-.09,1.52-.19,3.13-.3,4.82-.34.02,0,.04,0,.06,0,1.78-.04,3.53.14,5.2.34.42.05.84.1,1.25.15v-1.31l-.45-.05v.54h-.51s-2.62-.06-2.62-.06l-.02-.83-1.23-.07-.03.23-1.6.09-1.65.09v.4s-.27.26-.27.26v-1.06l-1.01.06v-.23l1.24-.08v.2c.39-.02,1.05-.04,1.69-.04.68,0,1.34,0,1.6,0v-.21c.49,0,1.1.03,1.33.03v-.33s-.4-.04-.4-.04l-.06-1.93c-.87-.11-1.69-.18-2.48-.22-.53-.03-1.05-.05-1.55-.05v-.35c-.26,0-.84.02-1.02.03v.32c-.95.02-1.83.09-2.64.2v-.21c-.31.05-.91.16-1.02.2v.17c-.13.02-.26.05-.39.08-.21.04-.42.09-.63.14-.55.13-1.05.29-1.52.45v-.17c-.15.05-.65.23-.77.32v.15c-2.56,1.11-3.77,2.65-4.19,3.65-.08.18-.13.34-.15.48h-.21c0-.16.02-.41.12-.73.36-1.22,1.75-3.38,6.51-4.64.2-.05.41-.1.62-.15,1.8-.42,4.05-.71,6.84-.8.52-.02,1.06-.02,1.62-.03l-.09-.3c-.21-.03-.76-.05-1.53-.06-1.23-.01-3.04.03-5.04.23l-.14-.2s0,0-.01,0c-.1-.23-.11-.71.33-1.17v-.46c.55-.06,1.92-.23,2.44-.23v.29c-.59.06-1.24.1-1.43.2-.19.1-.49.75-.36,1.2-.16.03,1.74-.19,2.9-.22,0,0-.11-.03-.16-.35Zm23.42,30.07v.73s-3.95,1.27-3.95,1.27v.68l-.23.05v-2.04l.23-.05v.3c1.06-.26,2.43-.59,3.95-.95Zm-6.15,1.48v.72s-3.42,1.13-3.42,1.13v.69l-.23.05v-2.02l.23-.05v.3l3.42-.82Zm-28.59-24.65v-.78s0,0,0,0c.13-.12.34-.3.63-.51v.97c-.21.11-.42.22-.63.33Zm1.76-.85v-1.18c.33-.19.7-.38,1.13-.57v1.32c-.39.13-.76.28-1.13.43Zm2.69-.9v-1.45c.44-.15.91-.28,1.42-.41.04-.01.08-.02.12-.03v1.54c-.53.1-1.04.22-1.54.35Zm2.22,0c.16-.02.39-.05.65-.08.89-.1,2.16-.24,2.53-.23v.31l-2.35.36-.64.1-.27.04v.42s-.28.24-.28.24v-1.32l.26-.05h0s0,.02,0,.02v.2s.05,0,.08-.01Zm1.41-.67v-1.63c.47-.07.97-.13,1.5-.18v1.67c-.51.04-1.01.09-1.5.14Zm3.84-.25v-1.7c.28,0,.57-.01.86-.01h0c.31,0,.61,0,.91.01v1.7c-.3,0-.6-.01-.91-.01h0c-.29,0-.58,0-.86.01Zm-3.4-5.78c-.14.03-.33-.02-.48,0,0-1.35.13-6.13,2.3-7.97l.26-.09c-1.87,1.23-2.16,6.49-2.08,8.05Zm-3.06.79c-.11.04-.22.07-.33.11.02-1.41.35-6.55,3.92-8.53-2.82,1.96-3.54,5.82-3.6,8.42Zm1.63.16s-.04.18-.03.33c0,0-.84.14-1.33.36-.16.14-.28.31-.34.53-.04.16-.04.34,0,.57-.16.05-.29.09-.39.12-.36.11-.4.14-.61.19-.05-.23-.23-.73.22-1.09.08-.07.18-.13.31-.19l.1-.29s.05-.01.07-.02c.45-.11,1.45-.42,2.01-.5Zm4.57-15.49v.51s0,0,0,0h0s.12.31.12.31c-.19.22-.45.43-.62.55v.32c-.11.09-.21.19-.31.3v3.03c-.37.15-.72.33-1.05.56v.9c-.54.17-1.06.38-1.57.64-.42.34-3.08,1.92-4.45,5.89-.1.3-.2.61-.28.93-.2.75-.36,1.57-.45,2.48-.09.05-.18.09-.27.14.03-.6.17-1.71.56-2.99.09-.29.19-.59.3-.89.74-1.99,2.1-4.18,4.51-5.5l.08-.05c-1.95.98-3.67,2.57-4.99,4.62l-1.72-3.99-2.73-7.51c.31-.15.62-.3.94-.45l3.54,8.83-2.62-9.23c3.49-1.46,7.29-2.31,11.28-2.42l.28,2.64c-.21.09-.4.22-.54.39ZM15.94,58.21v.72l.23.05v-2.06l-.23-.05v.3c-.91-.22-1.84-.44-2.75-.66.19.31.38.61.58.91.03.04.05.08.08.12l2.1.68ZM40.42,8.06c-.09,0-.17,0-.26,0v.32l.3.04-.05-.35Zm-16.03,12.37c.45,0,.81-.36.81-.81s-.36-.81-.81-.81-.81.36-.81.81.36.81.81.81Zm29.37,25.21l.03.8c0,.19.2.53.3.52.1,0,.08-.26.07-.45l-.04-1.05-.12-3.07c0-.18-.21-.35-.31-.34-.1,0-.05.17-.05.36l.11,3.24Zm-39.86-.41c-.35,0-.64.28-.64.64s.28.64.64.64.64-.29.64-.64-.29-.64-.64-.64Zm1.05-16c-.27,0-.49.22-.49.49s.22.49.49.49.49-.22.49-.49-.22-.49-.49-.49Zm4.48,6.53c-.31,0-.56.25-.56.56s.25.56.56.56.56-.25.56-.56-.25-.56-.56-.56Zm60.56,4.24c0,22.06-17.94,40-40,40S0,62.06,0,40,17.94,0,40,0s40,17.94,40,40m-.5,0C79.5,18.22,61.78.5,40,.5S.5,18.22.5,40s17.72,39.5,39.5,39.5,39.5-17.72,39.5-39.5M10.34,22.53l1.06-.26c.11.38.16.71.15,1-.02.45-.14.89-.36,1.32-.4.76-.97,1.24-1.73,1.44-.41.11-.84.12-1.29.04-.33-.06-.65-.17-.96-.33-.51-.26-.92-.63-1.23-1.09-.31-.46-.47-.96-.47-1.5,0-.45.12-.9.35-1.36.24-.46.55-.83.94-1.1.21-.15.51-.29.89-.42l.34,1.05c-.56.21-.95.52-1.16.93-.24.47-.27.94-.08,1.4.17.42.49.76.97,1.01.35.18.71.27,1.08.25.3,0,.58-.1.84-.27.26-.17.46-.4.61-.68.24-.46.26-.93.07-1.43m-1.53-5.25l4.73,3.35-.69.97-4.73-3.35.69-.97Zm3.55-2.79l3.6,3.22-.79.89-3.6-3.22-.92,1.03-.73-.65,2.63-2.94.73.65-.92,1.03Zm5.38-1.95l1.65,1.96-.91.77-1.65-1.96-3.57-1.23,1.08-.91,2.15.81-.45-2.25,1.07-.9.63,3.71Zm6.92-8.09c.46-.2.93-.28,1.41-.24.6.05,1.13.25,1.59.61.38.3.69.72.92,1.24.21.48.29.99.23,1.52-.06.57-.26,1.08-.62,1.53-.3.38-.68.67-1.14.87-.51.22-1.03.3-1.58.24-.58-.07-1.1-.28-1.54-.63-.37-.3-.66-.68-.85-1.13-.35-.81-.36-1.62-.03-2.42.3-.72.84-1.25,1.61-1.58m.41,1.02c-.51.22-.84.6-.99,1.13-.13.44-.09.89.11,1.35.22.5.56.85,1.02,1.04.46.19.92.19,1.37,0,.48-.21.81-.57.98-1.07.08-.25.1-.51.07-.79-.03-.21-.08-.41-.15-.58-.25-.56-.62-.94-1.11-1.12-.44-.16-.87-.15-1.3.04m6.03-2.04l.33,1.39,1.98-.47.22.95-1.98.47.56,2.36-1.16.27-1.34-5.64,3.14-.75.22.95-1.98.47Zm9.08.1l-.2,3.6-1.19-.07.32-5.79,1.34.07,1.54,3.61,1.93-3.42,1.34.08-.32,5.79-1.19-.07.2-3.6-2.1,3.68-1.68-3.89Zm9.67,4.1l-2.16-.58-.59.88-1.22-.33,3.44-5.08,1.44.39.41,6.11-1.26-.34-.05-1.05Zm-.05-1.02l-.15-2.53-1.41,2.11,1.56.42Zm2.16,2.76l2.47-5.25,1.49.7c.59.28,1.02.59,1.3.94.34.43.51.92.53,1.48.02.47-.09.94-.32,1.42-.28.6-.68,1.07-1.18,1.39-.8.51-1.71.53-2.74.04l-1.55-.73Zm3.13-3.87l-1.64,3.49.21.1c.39.18.72.27.99.27.37,0,.72-.12,1.03-.36.26-.2.48-.47.64-.81.18-.38.25-.76.22-1.13-.03-.34-.16-.64-.4-.9-.17-.19-.39-.35-.65-.47l-.4-.19Zm6.47,2.48l-3.17,4.85-1-.65,3.17-4.85,1,.65Zm-.79,4.41l.88.75c-.1.11-.16.21-.18.3-.03.14-.02.28.04.43.06.14.14.25.26.36.17.15.36.22.57.22.17,0,.31-.07.42-.2.12-.14.16-.31.12-.5-.03-.14-.14-.37-.33-.7-.3-.52-.48-.95-.53-1.29-.06-.43.07-.83.39-1.21.36-.42.78-.63,1.27-.63.46,0,.9.18,1.32.53.41.35.65.74.72,1.18.08.48-.05.96-.38,1.43l-.92-.78c.28-.39.24-.74-.11-1.04-.18-.16-.37-.22-.55-.2-.16.02-.28.09-.39.21-.15.18-.18.4-.09.65.05.13.16.34.34.65.22.39.37.69.43.91.17.57.07,1.08-.3,1.52-.4.47-.88.67-1.45.61-.42-.05-.82-.23-1.21-.56-.44-.37-.7-.78-.77-1.23-.09-.51.06-.98.44-1.42m9.15,3.05c.32.39.53.82.62,1.29.12.59.07,1.16-.15,1.7-.19.45-.5.86-.94,1.22-.41.33-.87.55-1.4.64-.56.1-1.11.04-1.64-.18-.45-.19-.83-.47-1.15-.86-.35-.43-.57-.91-.67-1.45-.1-.58-.03-1.13.19-1.65.19-.44.47-.82.85-1.13.68-.56,1.46-.79,2.32-.69.78.09,1.43.46,1.96,1.11m-.87.67c-.35-.43-.81-.64-1.36-.64-.46,0-.88.16-1.27.48-.42.35-.66.77-.72,1.27-.06.5.07.94.39,1.32.33.4.77.62,1.3.64.26.01.52-.04.77-.15.2-.09.37-.19.51-.31.47-.39.73-.85.77-1.37.03-.47-.1-.88-.39-1.24m2.65,5.81l-3.24,1.71-.56-1.05,5.12-2.71.55,1.03-2.06,3.84,3.2-1.69.56,1.05-5.12,2.71-.54-1.02,2.1-3.87Z"/>
</svg>